<svg width="54" height="55" viewBox="0 0 54 55" fill="none" xmlns="http://www.w3.org/2000/svg">
<g id="phone">
<path id="Vector" d="M14.895 24.7271C18.135 31.2125 23.355 36.5292 29.7225 39.8292L34.6725 34.7875C35.3025 34.1458 36.18 33.9625 36.9675 34.2146C39.4875 35.0625 42.1875 35.5208 45 35.5208C45.5967 35.5208 46.169 35.7623 46.591 36.192C47.0129 36.6218 47.25 37.2047 47.25 37.8125V45.8333C47.25 46.4411 47.0129 47.024 46.591 47.4538C46.169 47.8836 45.5967 48.125 45 48.125C34.8555 48.125 25.1264 44.0205 17.9532 36.7144C10.7799 29.4083 6.75 19.4991 6.75 9.16667C6.75 8.55888 6.98705 7.97598 7.40901 7.54621C7.83097 7.11644 8.40326 6.875 9 6.875H16.875C17.4717 6.875 18.044 7.11644 18.466 7.54621C18.8879 7.97598 19.125 8.55888 19.125 9.16667C19.125 12.0312 19.575 14.7813 20.4075 17.3479C20.655 18.15 20.475 19.0438 19.845 19.6854L14.895 24.7271Z" fill="white"/>
</g>
</svg>
