<svg width="74" height="44" viewBox="0 0 74 44" fill="none" xmlns="http://www.w3.org/2000/svg">
<path id="Vector 11" d="M3.32568 23C2.52568 25 1.99235 33.1666 1.82568 37C7.32568 30 16.8257 31 27.3257 32.5C35.7257 33.7 39.4924 30.6667 40.3257 29L40.5489 30.1161C40.7242 30.9926 41.2906 31.7325 42.0308 32.2336C47.9042 36.2096 52.2979 44.8426 59.3257 42.5L59.3259 42.4999C61.7259 41.6999 65.8257 40.3333 67.3257 40C67.8257 37.5 70.3257 35.5 71.8257 34.5C72.8257 31.5 71.8257 24 66.8257 22.5C71.6041 9.49998 59.9924 8.83332 54.3257 9.49998C45.9257 0.299981 40.4924 0.666648 38.8257 1.99998L38.3257 2.99998L36.3257 2.49998V3.99998C35.159 3.83331 33.0257 3.69998 33.8257 4.49998C34.6257 5.29998 34.159 12.5 33.8257 16C29.8257 23.2 25.4923 19.3333 23.8257 16.5C22.6257 16.5 18.9923 9.83331 17.3257 6.49998C14.159 7.49998 7.82568 9.99998 7.82568 12C7.82568 14.5 4.32568 20.5 3.32568 23Z" stroke="#404E7F" stroke-width="2"/>
</svg>
