<svg width="139" height="139" viewBox="0 0 139 139" fill="none" xmlns="http://www.w3.org/2000/svg">
<path id="Squircle" d="M25.6447 96.3554C19.0246 89.7353 14.3931 84.393 11.4223 79.7586C8.49209 75.1876 7.42711 71.6897 7.40298 68.6531C7.35314 62.3787 11.7031 54.8065 25.1293 41.3803L41.3803 25.1293C54.8065 11.7031 62.3787 7.35313 68.6531 7.40298C71.6897 7.4271 75.1876 8.49209 79.7586 11.4223C84.393 14.3931 89.7353 19.0246 96.3554 25.6447L112.99 42.2792C119.61 48.8992 124.241 54.2416 127.212 58.8759C130.142 63.447 131.207 66.9449 131.232 69.9815C131.281 76.2559 126.931 83.828 113.505 97.2542L97.2542 113.505C83.828 126.931 76.2559 131.281 69.9815 131.232C66.9449 131.207 63.447 130.142 58.8759 127.212C54.2416 124.241 48.8992 119.61 42.2792 112.99L25.6447 96.3554Z" stroke="#FF422E" stroke-width="14"/>
</svg>
