<svg width="139" height="139" viewBox="0 0 139 139" fill="none" xmlns="http://www.w3.org/2000/svg">
<path id="Squircle" opacity="0.6" d="M25.5899 96.4833C19.065 89.9584 14.5455 84.7203 11.675 80.193C8.8529 75.7421 7.8819 72.3799 7.893 69.4813C7.90412 66.5761 8.90537 63.188 11.7751 58.6943C14.69 54.1299 19.26 48.8466 25.8381 42.2685L42.2685 25.8381C48.8466 19.26 54.1299 14.69 58.6943 11.7751C63.188 8.90537 66.5761 7.90412 69.4813 7.893C72.3799 7.8819 75.7421 8.8529 80.193 11.675C84.7203 14.5455 89.9584 19.065 96.4833 25.5899L112.91 42.0166C119.435 48.5416 123.954 53.7797 126.825 58.307C129.647 62.7579 130.618 66.1201 130.607 69.0187C130.596 71.9239 129.595 75.312 126.725 79.8057C123.81 84.3701 119.24 89.6534 112.662 96.2315L96.2315 112.662C89.6534 119.24 84.3701 123.81 79.8057 126.725C75.312 129.595 71.9239 130.596 69.0187 130.607C66.1201 130.618 62.7579 129.647 58.307 126.825C53.7797 123.954 48.5416 119.435 42.0167 112.91L25.5899 96.4833Z" stroke="#7743A3" stroke-width="15"/>
</svg>
