<svg width="391" height="391" viewBox="0 0 391 391" fill="none" xmlns="http://www.w3.org/2000/svg">
<path d="M74.0924 269.858C55.4284 251.194 42.5623 236.309 34.3918 223.537C26.3605 210.983 23.7018 201.762 23.6575 194.067C23.5648 177.962 34.7935 157.441 73.0338 119.2L119.2 73.0338C157.44 34.7936 177.962 23.5648 194.067 23.6575C201.762 23.7018 210.983 26.3606 223.537 34.3919C236.309 42.5624 251.194 55.4285 269.858 74.0924L316.908 121.142C335.572 139.806 348.438 154.691 356.608 167.463C364.639 180.017 367.298 189.238 367.342 196.933C367.435 213.038 356.206 233.56 317.966 271.8L271.8 317.966C233.56 356.207 213.038 367.435 196.933 367.343C189.238 367.298 180.017 364.64 167.463 356.608C154.691 348.438 139.806 335.572 121.142 316.908L74.0924 269.858Z" stroke="#73A6AA" stroke-width="47"/>
</svg>
