<?xml version="1.0" encoding="utf-8"?><svg viewBox="0 0 391 391" xmlns="http://www.w3.org/2000/svg" xmlns:xlink="http://www.w3.org/1999/xlink"><style>:root>svg{display:none}:root>svg:target{display:block}</style><svg fill="none" viewBox="0 0 20 20" id="chevron-down" xmlns="http://www.w3.org/2000/svg"><path d="m5 7.5 5 5 5-5" stroke="#fff" stroke-width="1.5" stroke-linecap="round" stroke-linejoin="round"/></svg><svg fill="none" viewBox="0 0 32 32" id="close" xmlns="http://www.w3.org/2000/svg"><path d="M19.035 15.75 31.5 28.215V31.5h-3.285L15.75 19.035 3.285 31.5H0v-3.285L12.465 15.75 0 3.285V0h3.285L15.75 12.465 28.215 0H31.5v3.285L19.035 15.75Z" fill="#fff"/></svg><svg fill="none" viewBox="0 0 54 55" id="phone" xmlns="http://www.w3.org/2000/svg"><path d="M14.895 24.727c3.24 6.485 8.46 11.802 14.828 15.102l4.95-5.041a2.23 2.23 0 0 1 2.294-.573c2.52.847 5.22 1.306 8.033 1.306a2.23 2.23 0 0 1 1.591.671c.422.43.659 1.013.659 1.62v8.021c0 .608-.237 1.191-.659 1.62a2.23 2.23 0 0 1-1.591.672c-10.145 0-19.874-4.105-27.047-11.41C10.78 29.407 6.75 19.498 6.75 9.166c0-.608.237-1.191.659-1.62A2.23 2.23 0 0 1 9 6.874h7.875a2.23 2.23 0 0 1 1.591.671c.422.43.659 1.013.659 1.62 0 2.865.45 5.615 1.282 8.182a2.33 2.33 0 0 1-.562 2.337l-4.95 5.042Z" fill="#fff"/></svg><svg fill="none" viewBox="0 0 74 44" id="slide2-icon-1" xmlns="http://www.w3.org/2000/svg"><path d="M3.326 23c-.8 2-1.334 10.167-1.5 14 5.5-7 15-6 25.5-4.5 8.4 1.2 12.166-1.833 13-3.5l.223 1.116c.175.877.742 1.617 1.482 2.118C47.904 36.21 52.298 44.843 59.326 42.5c2.4-.8 6.5-2.167 8-2.5.5-2.5 3-4.5 4.5-5.5 1-3 0-10.5-5-12 4.778-13-6.834-13.667-12.5-13C45.926.3 40.492.667 38.826 2l-.5 1-2-.5V4c-1.167-.167-3.3-.3-2.5.5.8.8.333 8 0 11.5-4 7.2-8.334 3.333-10 .5-1.2 0-4.834-6.667-6.5-10-3.167 1-9.5 3.5-9.5 5.5 0 2.5-3.5 8.5-4.5 11Z" stroke="#404E7F" stroke-width="2"/></svg><svg fill="none" viewBox="0 0 18 24" id="slide6-icon-1" xmlns="http://www.w3.org/2000/svg"><path d="M8.933 1c-5.833 6.333-13.416 22.5 0 22.5 12.5 0 7.5-14.5 0-22.5Z" stroke="#fff"/></svg><svg fill="none" viewBox="0 0 34 13" id="slide6-icon-2" xmlns="http://www.w3.org/2000/svg"><path d="M29.75 4.5V1H1.25v11.5h28.5V9m0-4.5h3V9h-3m0-4.5V9" stroke="#fff"/></svg><svg fill="none" viewBox="0 0 35 12" id="slide6-icon-3" xmlns="http://www.w3.org/2000/svg"><path d="M4.75 7h-4V4.5h4.5m0 0V1h24v3.5m-24 0V11l24-.5V7m0-2.5h5V7h-5m0-2.5V7" stroke="#fff"/></svg><svg fill="none" viewBox="0 0 28 24" id="slide6-icon-4" xmlns="http://www.w3.org/2000/svg"><path d="M9.75 11.63c.4.4 3.5 7.5 5 11l4.5-11M.75 8.13c7-9 19.5-10 26.5 0" stroke="#fff"/></svg><svg fill="none" viewBox="0 0 34 27" id="slide6-icon-5" xmlns="http://www.w3.org/2000/svg"><path d="M2.8 26.5C.133 18.333-.718 1 17.3 1c16.5 0 16.833 16.667 14 25.5" stroke="#fff"/><path d="M17.3 21a3.5 3.5 0 1 0 0-7 3.5 3.5 0 0 0 0 7Z" fill="#fff"/><path d="m9.3 9.5 6 6.5" stroke="#fff"/></svg><svg fill="none" viewBox="0 0 11 34" id="slide6-icon-6" xmlns="http://www.w3.org/2000/svg"><g stroke="#fff"><path d="M1.75 7h-1v24.5h9.5V7h-.5m-8 0h8m-8 0V5m8 2V5m-8 0V1h8v4m-8 0h8M1.75 31.5v2h8v-2"/></g></svg><svg fill="none" viewBox="0 0 139 139" id="squircle" xmlns="http://www.w3.org/2000/svg"><path opacity=".6" d="M25.59 96.483c-6.525-6.525-11.044-11.763-13.915-16.29-2.822-4.45-3.793-7.813-3.782-10.712.011-2.905 1.012-6.293 3.882-10.787 2.915-4.564 7.485-9.847 14.063-16.425l16.43-16.43C48.848 19.26 54.13 14.69 58.695 11.774c4.494-2.87 7.882-3.87 10.787-3.882 2.899-.011 6.261.96 10.712 3.782 4.527 2.87 9.765 7.39 16.29 13.915l16.427 16.427c6.525 6.525 11.044 11.763 13.915 16.29 2.822 4.45 3.793 7.813 3.782 10.712-.011 2.905-1.012 6.293-3.882 10.787-2.915 4.564-7.485 9.847-14.063 16.425l-16.43 16.431c-6.579 6.578-11.862 11.148-16.426 14.063-4.494 2.87-7.882 3.871-10.787 3.882-2.899.011-6.261-.96-10.712-3.782-4.527-2.871-9.765-7.39-16.29-13.915L25.59 96.483Z" stroke="#7743A3" stroke-width="15"/></svg><svg fill="none" viewBox="0 0 139 139" id="squircle-1" xmlns="http://www.w3.org/2000/svg"><path d="M25.645 96.355c-6.62-6.62-11.252-11.962-14.223-16.596-2.93-4.571-3.995-8.07-4.019-11.106-.05-6.274 4.3-13.847 17.726-27.273L41.38 25.13C54.806 11.702 62.38 7.352 68.653 7.402c3.037.024 6.535 1.09 11.106 4.02 4.634 2.97 9.976 7.602 16.596 14.222l16.635 16.634c6.62 6.62 11.251 11.963 14.222 16.597 2.93 4.571 3.995 8.069 4.02 11.105.049 6.275-4.301 13.847-17.727 27.273l-16.25 16.251c-13.427 13.426-21 17.776-27.273 17.727-3.037-.025-6.535-1.09-11.106-4.02-4.634-2.971-9.977-7.602-16.597-14.222L25.645 96.355Z" stroke="#FF422E" stroke-width="14"/></svg><svg fill="none" viewBox="0 0 391 391" id="squircle-2" xmlns="http://www.w3.org/2000/svg"><path d="M74.092 269.858c-18.664-18.664-31.53-33.549-39.7-46.321-8.032-12.554-10.69-21.775-10.735-29.47-.092-16.105 11.137-36.626 49.377-74.867L119.2 73.034c38.24-38.24 58.762-49.47 74.867-49.377 7.695.045 16.916 2.704 29.47 10.735 12.772 8.17 27.657 21.036 46.321 39.7l47.05 47.05c18.664 18.664 31.53 33.549 39.7 46.321 8.031 12.554 10.69 21.775 10.734 29.47.093 16.105-11.136 36.627-49.376 74.867L271.8 317.966c-38.24 38.241-58.762 49.469-74.867 49.377-7.695-.045-16.916-2.703-29.47-10.735-12.772-8.17-27.657-21.036-46.321-39.7l-47.05-47.05Z" stroke="#73A6AA" stroke-width="47"/></svg></svg>